<?xml version="1.0" standalone="no"?>
<!DOCTYPE svg PUBLIC "-//W3C//DTD SVG 20010904//EN"
 "http://www.w3.org/TR/2001/REC-SVG-20010904/DTD/svg10.dtd">
<svg version="1.0" xmlns="http://www.w3.org/2000/svg"
 width="700.000000pt" height="700.000000pt" viewBox="0 0 700.000000 700.000000"
 preserveAspectRatio="xMidYMid meet">
<metadata>
Created by potrace 1.11, written by Peter Selinger 2001-2013
</metadata>
<g transform="translate(0.000000,700.000000) scale(0.100000,-0.100000)"
fill="#000000" stroke="none">
<path d="M3308 6705 c-2 -1 -46 -6 -98 -9 -52 -4 -104 -9 -115 -11 -11 -2 -47
-7 -80 -10 -32 -4 -62 -8 -65 -10 -3 -2 -27 -6 -52 -9 -169 -21 -490 -112
-713 -203 -476 -195 -895 -484 -1245 -860 -92 -98 -118 -129 -175 -203 -28
-36 -53 -67 -56 -70 -21 -17 -196 -281 -250 -377 -89 -157 -197 -392 -253
-548 -25 -72 -83 -256 -91 -291 -2 -10 -15 -66 -29 -124 -24 -105 -50 -257
-62 -360 -3 -30 -8 -66 -12 -80 -3 -14 -7 -672 -9 -1462 -3 -1295 -2 -1441 12
-1475 35 -83 113 -135 205 -135 90 0 150 39 201 132 12 21 14 246 15 1350 1
1179 5 1516 18 1585 2 11 7 45 10 76 4 31 8 65 10 75 2 11 7 39 11 64 12 78
52 241 90 363 140 464 407 908 751 1251 348 348 750 598 1209 751 93 31 237
71 295 82 14 2 44 8 68 14 23 5 59 12 78 15 20 3 45 7 56 9 11 3 43 7 72 10
28 3 67 8 86 11 63 10 503 12 580 4 41 -5 99 -12 128 -15 61 -7 179 -28 277
-49 156 -34 371 -103 530 -171 743 -318 1346 -938 1643 -1690 82 -209 146
-443 176 -640 3 -22 8 -58 11 -80 24 -158 28 -368 29 -1675 l1 -1315 22 -42
c39 -72 109 -115 192 -115 92 -1 170 51 205 137 15 36 16 166 13 1475 -2 789
-6 1446 -9 1460 -4 14 -9 52 -13 85 -9 85 -44 289 -62 360 -8 33 -17 68 -19
78 -2 10 -6 27 -9 37 -3 10 -8 27 -10 37 -10 48 -81 260 -121 363 -49 122
-171 375 -231 475 -219 367 -505 699 -822 954 -53 42 -112 88 -131 101 -19 13
-37 27 -40 30 -8 8 -201 135 -235 154 -16 9 -46 26 -65 38 -142 85 -442 218
-635 281 -147 48 -196 62 -381 102 -64 15 -324 53 -404 60 -82 7 -496 16 -502
10z"/>
<path d="M1405 4211 c-92 -25 -167 -67 -232 -132 -68 -68 -106 -133 -132 -228
-20 -71 -21 -100 -21 -639 0 -624 2 -641 63 -756 41 -77 135 -170 211 -208
124 -63 -22 -59 2207 -59 1875 0 2041 1 2095 17 193 55 339 211 373 399 8 39
11 254 11 617 -1 611 -1 612 -62 735 -62 126 -210 236 -352 262 -42 8 -668 11
-2075 10 -1924 0 -2019 -1 -2086 -18z m425 -363 c26 -8 132 -107 415 -389
l380 -379 369 369 c230 230 385 378 411 391 23 12 62 22 86 22 97 2 98 2 504
-403 l380 -379 375 375 c208 209 390 382 410 392 185 87 381 -109 290 -290
-15 -30 -169 -190 -494 -514 -455 -454 -473 -471 -520 -481 -64 -13 -118 -8
-164 18 -20 12 -201 185 -401 386 -200 200 -367 364 -371 364 -4 0 -171 -164
-371 -365 -259 -260 -378 -372 -411 -389 -63 -32 -140 -29 -200 7 -66 40 -943
923 -965 972 -45 103 -11 218 82 275 19 12 50 24 68 27 17 3 34 6 35 8 5 5 50
-4 92 -17z"/>
<path d="M2491 1448 c-67 -15 -135 -88 -150 -160 -7 -31 -9 -69 -5 -84 14 -60
54 -119 102 -149 l47 -30 995 -2 c606 -2 1008 1 1030 7 120 32 188 183 135
297 -24 53 -85 113 -115 113 -10 0 -21 4 -25 10 -8 13 -1955 11 -2014 -2z"/>
</g>
</svg>
